<?xml version="1.0" encoding="utf-8"?>
<svg viewBox="13.38 3.2 485.44 505.7" xmlns="http://www.w3.org/2000/svg">
  <path d="m186.84 13.95c-79.06 5.85-146.27 11.23-149.43 11.86-8.86 1.58-16.92 7.59-20.71 15.5l-3.32 6.96.32 165.88.47 165.88 5.06 10.28c2.85 5.69 22.14 32.26 43.17 59.61 41.59 53.92 44.59 56.93 60.4 58.51 4.59.47 39.06-1.11 76.38-3.32 37.48-2.37 97.56-6.01 133.62-8.06 154.01-9.35 146.1-8.56 154.95-16.15 11.07-9.17 10.28 5.85 10.75-195.76.32-170.94.16-182.16-2.37-187.38-3-5.85-8.38-9.96-78.59-59.3-46.96-32.89-50.28-34.63-71.32-34.95-8.69-.31-80.48 4.43-159.38 10.44zm177.73 21.66c6.64 3 55.19 36.84 62.3 43.33 1.9 1.9 2.53 3.48 1.58 4.43-2.21 1.9-302.66 19.77-311.35 18.5-3.95-.63-9.8-3-13.12-5.22-13.76-9.33-47.91-37.32-47.91-39.37 0-5.38-1.11-5.38 132.83-15.02 25.62-1.74 67.68-4.9 93.3-6.96 55.49-4.43 72.1-4.27 82.37.31zm95.51 86.5c2.21 2.21 4.11 6.48 4.74 10.59.47 3.8.79 74.64.47 157.18-.47 141.68-.63 150.54-3.32 154.65-1.58 2.53-4.74 5.22-7.12 6.01-6.63 2.69-321.46 20.56-327.94 18.66-3-.79-7.12-3.32-9.33-5.53l-3.8-4.11-.47-152.75c-.32-107.21 0-154.65 1.27-158.92.95-3.16 3.32-6.96 5.38-8.22 2.85-1.9 21.51-3.48 85.71-7.27 45.07-2.53 114.8-6.8 154.81-9.17 95.17-5.86 94.86-5.86 99.6-1.12z"/>
  <path d="M 198.053 367.604 L 168.173 367.604 L 137.083 253.334 L 121.813 251.944 L 121.813 232.884 L 182.603 232.884 L 182.603 251.944 L 167.613 254.074 L 182.323 314.304 L 184.453 323.004 L 185.013 323.004 L 187.233 314.214 L 213.603 232.884 L 235.993 232.884 L 263.753 318.004 L 265.693 323.834 L 266.253 323.834 L 267.823 318.004 L 283.553 254.074 L 268.103 251.944 L 268.103 232.884 L 327.693 232.884 L 327.693 251.944 L 313.343 253.334 L 280.873 367.604 L 251.903 367.604 L 228.683 297.934 L 225.813 288.304 L 225.263 288.304 L 221.653 298.484 L 198.053 367.604 ZM 398.312 369.544 C 385.479 369.544 374.036 366.954 363.982 361.774 C 353.929 356.594 346.032 349.084 340.292 339.244 C 334.559 329.404 331.692 317.451 331.692 303.384 L 331.692 297.194 C 331.692 284.234 334.329 272.774 339.602 262.814 C 344.876 252.854 352.402 245.051 362.182 239.404 C 371.956 233.757 383.566 230.934 397.012 230.934 C 406.392 230.934 415.322 232.184 423.802 234.684 C 432.282 237.184 440.162 241.457 447.442 247.504 L 447.442 282.204 L 423.852 282.204 L 420.612 262.304 C 418.512 260.884 416.306 259.651 413.992 258.604 C 411.679 257.557 409.212 256.754 406.592 256.194 C 403.972 255.641 401.149 255.364 398.122 255.364 C 391.276 255.364 385.292 257.001 380.172 260.274 C 375.052 263.541 371.089 268.274 368.282 274.474 C 365.476 280.674 364.072 288.184 364.072 297.004 L 364.072 303.384 C 364.072 311.651 365.522 318.917 368.422 325.184 C 371.322 331.444 375.379 336.331 380.592 339.844 C 385.806 343.364 391.836 345.124 398.682 345.124 C 402.322 345.124 406.022 344.737 409.782 343.964 C 413.549 343.191 417.189 342.157 420.702 340.864 L 423.942 321.804 L 447.632 321.804 L 447.632 355.764 C 442.266 359.464 435.419 362.687 427.092 365.434 C 418.759 368.174 409.166 369.544 398.312 369.544 Z" transform="matrix(1, 0, 0, 1.2952380180358887, -0.9830690622329712, -84.31270599365234)" style="fill: rgb(51, 51, 51); white-space: pre;"/>
</svg>